<mxfile host="Electron" agent="Mozilla/5.0 (Macintosh; Intel Mac OS X 10_15_7) AppleWebKit/537.36 (KHTML, like Gecko) draw.io/24.7.17 Chrome/128.0.6613.36 Electron/32.0.1 Safari/537.36" version="24.7.17">
  <diagram name="Page-1" id="BJ59CZd0avkD20fNCMdy">
    <mxGraphModel dx="1311" dy="939" grid="1" gridSize="10" guides="1" tooltips="1" connect="1" arrows="1" fold="1" page="0" pageScale="1" pageWidth="850" pageHeight="1100" background="#ffffff" math="0" shadow="0">
      <root>
        <mxCell id="0" />
        <mxCell id="1" parent="0" />
        <mxCell id="mQ336pBya-JAdGuOlRcB-20" value="" style="rounded=0;whiteSpace=wrap;html=1;fillColor=#dae8fc;strokeColor=#6c8ebf;" vertex="1" parent="1">
          <mxGeometry x="210" y="200" width="390" height="510" as="geometry" />
        </mxCell>
        <mxCell id="mQ336pBya-JAdGuOlRcB-7" value="" style="group;strokeWidth=1;strokeColor=none;" vertex="1" connectable="0" parent="1">
          <mxGeometry x="375" y="240" width="60" height="60" as="geometry" />
        </mxCell>
        <mxCell id="mQ336pBya-JAdGuOlRcB-6" value="" style="ellipse;whiteSpace=wrap;html=1;aspect=fixed;fillColor=#f5f5f5;fontColor=#333333;strokeColor=#666666;strokeWidth=2;" vertex="1" parent="mQ336pBya-JAdGuOlRcB-7">
          <mxGeometry width="60" height="60" as="geometry" />
        </mxCell>
        <mxCell id="mQ336pBya-JAdGuOlRcB-5" value="" style="html=1;verticalLabelPosition=bottom;align=center;labelBackgroundColor=#ffffff;verticalAlign=top;strokeWidth=2;shadow=0;dashed=0;shape=mxgraph.ios7.icons.microphone;fillColor=#f5f5f5;fontColor=#333333;strokeColor=#666666;" vertex="1" parent="mQ336pBya-JAdGuOlRcB-7">
          <mxGeometry x="24" y="15" width="12" height="30" as="geometry" />
        </mxCell>
        <mxCell id="mQ336pBya-JAdGuOlRcB-8" value="First Name" style="rounded=1;whiteSpace=wrap;html=1;align=left;spacingLeft=10;fontStyle=1;fillColor=#f5f5f5;fontColor=#333333;strokeColor=#666666;" vertex="1" parent="1">
          <mxGeometry x="270" y="320" width="270" height="40" as="geometry" />
        </mxCell>
        <mxCell id="mQ336pBya-JAdGuOlRcB-9" value="Last Name" style="rounded=1;whiteSpace=wrap;html=1;align=left;spacingLeft=10;fontStyle=1;fillColor=#f5f5f5;fontColor=#333333;strokeColor=#666666;" vertex="1" parent="1">
          <mxGeometry x="270" y="370" width="270" height="40" as="geometry" />
        </mxCell>
        <mxCell id="mQ336pBya-JAdGuOlRcB-10" value="Email Address" style="rounded=1;whiteSpace=wrap;html=1;align=left;spacingLeft=10;fontStyle=1;fillColor=#f5f5f5;fontColor=#333333;strokeColor=#666666;" vertex="1" parent="1">
          <mxGeometry x="270" y="420" width="270" height="40" as="geometry" />
        </mxCell>
        <mxCell id="mQ336pBya-JAdGuOlRcB-11" value="Phone Number" style="rounded=1;whiteSpace=wrap;html=1;align=left;spacingLeft=10;fontStyle=1;fillColor=#f5f5f5;fontColor=#333333;strokeColor=#666666;" vertex="1" parent="1">
          <mxGeometry x="270" y="470" width="270" height="40" as="geometry" />
        </mxCell>
        <mxCell id="mQ336pBya-JAdGuOlRcB-16" value="" style="group" vertex="1" connectable="0" parent="1">
          <mxGeometry x="270" y="520" width="270" height="50" as="geometry" />
        </mxCell>
        <mxCell id="mQ336pBya-JAdGuOlRcB-14" value="Age" style="rounded=1;whiteSpace=wrap;html=1;align=left;spacingLeft=10;fontStyle=1;fillColor=#f5f5f5;fontColor=#333333;strokeColor=#666666;verticalAlign=top;spacing=2;spacingTop=4;" vertex="1" parent="mQ336pBya-JAdGuOlRcB-16">
          <mxGeometry width="270" height="50" as="geometry" />
        </mxCell>
        <mxCell id="mQ336pBya-JAdGuOlRcB-13" value="" style="endArrow=none;html=1;rounded=0;strokeWidth=1;fillColor=#f5f5f5;strokeColor=#666666;" edge="1" parent="mQ336pBya-JAdGuOlRcB-16">
          <mxGeometry width="50" height="50" relative="1" as="geometry">
            <mxPoint x="10" y="34.549999999999955" as="sourcePoint" />
            <mxPoint x="260" y="34.549999999999955" as="targetPoint" />
          </mxGeometry>
        </mxCell>
        <mxCell id="mQ336pBya-JAdGuOlRcB-15" value="" style="ellipse;whiteSpace=wrap;html=1;aspect=fixed;fillColor=#dae8fc;strokeColor=#6c8ebf;" vertex="1" parent="mQ336pBya-JAdGuOlRcB-16">
          <mxGeometry x="129" y="29" width="11" height="11" as="geometry" />
        </mxCell>
        <mxCell id="mQ336pBya-JAdGuOlRcB-17" value="" style="whiteSpace=wrap;html=1;aspect=fixed;" vertex="1" parent="1">
          <mxGeometry x="280" y="585" width="20" height="20" as="geometry" />
        </mxCell>
        <mxCell id="mQ336pBya-JAdGuOlRcB-18" value="Sign up for our mailing list" style="text;html=1;align=left;verticalAlign=middle;whiteSpace=wrap;rounded=0;" vertex="1" parent="1">
          <mxGeometry x="305" y="580" width="230" height="30" as="geometry" />
        </mxCell>
        <mxCell id="mQ336pBya-JAdGuOlRcB-21" value="Submit" style="rounded=1;whiteSpace=wrap;html=1;fontStyle=1;" vertex="1" parent="1">
          <mxGeometry x="345" y="630" width="120" height="40" as="geometry" />
        </mxCell>
        <mxCell id="mQ336pBya-JAdGuOlRcB-25" value="Users will active the microphone either through clicking on the icon or pressing a preconfigured key" style="shape=callout;whiteSpace=wrap;html=1;perimeter=calloutPerimeter;fillColor=#ffe6cc;strokeColor=#d79b00;" vertex="1" parent="1">
          <mxGeometry x="335" y="150" width="220" height="100" as="geometry" />
        </mxCell>
        <mxCell id="mQ336pBya-JAdGuOlRcB-26" value="" style="rounded=0;whiteSpace=wrap;html=1;fillColor=#dae8fc;strokeColor=#6c8ebf;" vertex="1" parent="1">
          <mxGeometry x="760" y="200" width="390" height="510" as="geometry" />
        </mxCell>
        <mxCell id="mQ336pBya-JAdGuOlRcB-27" value="" style="group;strokeWidth=1;strokeColor=none;" vertex="1" connectable="0" parent="1">
          <mxGeometry x="925" y="240" width="60" height="60" as="geometry" />
        </mxCell>
        <mxCell id="mQ336pBya-JAdGuOlRcB-28" value="" style="ellipse;whiteSpace=wrap;html=1;aspect=fixed;fillColor=#f5f5f5;fontColor=#333333;strokeColor=#666666;strokeWidth=2;" vertex="1" parent="mQ336pBya-JAdGuOlRcB-27">
          <mxGeometry width="60" height="60" as="geometry" />
        </mxCell>
        <mxCell id="mQ336pBya-JAdGuOlRcB-29" value="" style="html=1;verticalLabelPosition=bottom;align=center;labelBackgroundColor=#ffffff;verticalAlign=top;strokeWidth=2;shadow=0;dashed=0;shape=mxgraph.ios7.icons.microphone;fillColor=#f5f5f5;fontColor=#333333;strokeColor=#666666;" vertex="1" parent="mQ336pBya-JAdGuOlRcB-27">
          <mxGeometry x="24" y="15" width="12" height="30" as="geometry" />
        </mxCell>
        <mxCell id="mQ336pBya-JAdGuOlRcB-30" value="First Name &lt;span style=&quot;white-space: pre;&quot;&gt;&#x9;&lt;span style=&quot;white-space: pre;&quot;&gt;&#x9;&lt;/span&gt;&lt;/span&gt;&lt;span style=&quot;font-weight: normal;&quot;&gt;Kevin&lt;/span&gt;" style="rounded=1;whiteSpace=wrap;html=1;align=left;spacingLeft=10;fontStyle=1;fillColor=#f5f5f5;fontColor=#333333;strokeColor=#666666;" vertex="1" parent="1">
          <mxGeometry x="820" y="320" width="270" height="40" as="geometry" />
        </mxCell>
        <mxCell id="mQ336pBya-JAdGuOlRcB-31" value="Last Name&lt;span style=&quot;font-weight: normal;&quot;&gt;&amp;nbsp;&lt;span style=&quot;white-space: pre;&quot;&gt;&#x9;&lt;span style=&quot;white-space: pre;&quot;&gt;&#x9;&lt;/span&gt;&lt;/span&gt;Zyskowski&lt;/span&gt;" style="rounded=1;whiteSpace=wrap;html=1;align=left;spacingLeft=10;fontStyle=1;fillColor=#f5f5f5;fontColor=#333333;strokeColor=#666666;" vertex="1" parent="1">
          <mxGeometry x="820" y="370" width="270" height="40" as="geometry" />
        </mxCell>
        <mxCell id="mQ336pBya-JAdGuOlRcB-32" value="Email Address&lt;span style=&quot;white-space: pre;&quot;&gt;&#x9;&lt;/span&gt;&lt;span style=&quot;font-weight: normal;&quot;&gt;kevin@gmail.com&lt;/span&gt;" style="rounded=1;whiteSpace=wrap;html=1;align=left;spacingLeft=10;fontStyle=1;fillColor=#f5f5f5;fontColor=#333333;strokeColor=#666666;" vertex="1" parent="1">
          <mxGeometry x="820" y="420" width="270" height="40" as="geometry" />
        </mxCell>
        <mxCell id="mQ336pBya-JAdGuOlRcB-33" value="Phone Number&lt;span style=&quot;white-space: pre;&quot;&gt;&#x9;&lt;/span&gt;&lt;span style=&quot;font-weight: normal;&quot;&gt;123-456-7890&lt;/span&gt;" style="rounded=1;whiteSpace=wrap;html=1;align=left;spacingLeft=10;fontStyle=1;fillColor=#f5f5f5;fontColor=#333333;strokeColor=#666666;" vertex="1" parent="1">
          <mxGeometry x="820" y="470" width="270" height="40" as="geometry" />
        </mxCell>
        <mxCell id="mQ336pBya-JAdGuOlRcB-34" value="" style="group" vertex="1" connectable="0" parent="1">
          <mxGeometry x="820" y="520" width="270" height="50" as="geometry" />
        </mxCell>
        <mxCell id="mQ336pBya-JAdGuOlRcB-35" value="Age&lt;span style=&quot;white-space: pre;&quot;&gt;&#x9;&lt;span style=&quot;white-space: pre;&quot;&gt;&#x9;&lt;span style=&quot;white-space: pre;&quot;&gt;&#x9;&lt;/span&gt;&lt;span style=&quot;white-space: pre;&quot;&gt;&#x9;&lt;/span&gt;&lt;span style=&quot;font-weight: normal;&quot;&gt;23 years old&lt;/span&gt;&lt;/span&gt;&lt;/span&gt;" style="rounded=1;whiteSpace=wrap;html=1;align=left;spacingLeft=10;fontStyle=1;fillColor=#f5f5f5;fontColor=#333333;strokeColor=#666666;verticalAlign=top;spacing=2;spacingTop=4;" vertex="1" parent="mQ336pBya-JAdGuOlRcB-34">
          <mxGeometry width="270" height="50" as="geometry" />
        </mxCell>
        <mxCell id="mQ336pBya-JAdGuOlRcB-36" value="" style="endArrow=none;html=1;rounded=0;strokeWidth=1;fillColor=#f5f5f5;strokeColor=#666666;" edge="1" parent="mQ336pBya-JAdGuOlRcB-34">
          <mxGeometry width="50" height="50" relative="1" as="geometry">
            <mxPoint x="10" y="34.549999999999955" as="sourcePoint" />
            <mxPoint x="260" y="34.549999999999955" as="targetPoint" />
          </mxGeometry>
        </mxCell>
        <mxCell id="mQ336pBya-JAdGuOlRcB-37" value="" style="ellipse;whiteSpace=wrap;html=1;aspect=fixed;fillColor=#dae8fc;strokeColor=#6c8ebf;" vertex="1" parent="mQ336pBya-JAdGuOlRcB-34">
          <mxGeometry x="65" y="29" width="11" height="11" as="geometry" />
        </mxCell>
        <mxCell id="mQ336pBya-JAdGuOlRcB-38" value="X" style="whiteSpace=wrap;html=1;aspect=fixed;" vertex="1" parent="1">
          <mxGeometry x="830" y="585" width="20" height="20" as="geometry" />
        </mxCell>
        <mxCell id="mQ336pBya-JAdGuOlRcB-39" value="Sign up for our mailing list" style="text;html=1;align=left;verticalAlign=middle;whiteSpace=wrap;rounded=0;" vertex="1" parent="1">
          <mxGeometry x="855" y="580" width="230" height="30" as="geometry" />
        </mxCell>
        <mxCell id="mQ336pBya-JAdGuOlRcB-40" value="Submit" style="rounded=1;whiteSpace=wrap;html=1;fontStyle=1;" vertex="1" parent="1">
          <mxGeometry x="895" y="630" width="120" height="40" as="geometry" />
        </mxCell>
        <mxCell id="mQ336pBya-JAdGuOlRcB-44" value="" style="endArrow=classic;html=1;rounded=0;strokeWidth=4;" edge="1" parent="1">
          <mxGeometry width="50" height="50" relative="1" as="geometry">
            <mxPoint x="610" y="454.57" as="sourcePoint" />
            <mxPoint x="750" y="454.57" as="targetPoint" />
          </mxGeometry>
        </mxCell>
        <mxCell id="mQ336pBya-JAdGuOlRcB-46" value="My name is Kevin Zyskowski, I am 23 years old.&amp;nbsp;&lt;span style=&quot;background-color: initial;&quot;&gt;My phone number is one two three, four five six, seven eight nine zero.&amp;nbsp;&lt;/span&gt;&lt;span style=&quot;background-color: initial;&quot;&gt;My email address is kevin at gmail dot com.&amp;nbsp;&lt;/span&gt;&lt;span style=&quot;background-color: initial;&quot;&gt;Sign me up for the mailing list please.&lt;/span&gt;" style="shape=callout;whiteSpace=wrap;html=1;perimeter=calloutPerimeter;align=center;verticalAlign=top;spacing=2;spacingLeft=2;spacingRight=2;" vertex="1" parent="1">
          <mxGeometry x="610" y="270" width="140" height="170" as="geometry" />
        </mxCell>
        <mxCell id="mQ336pBya-JAdGuOlRcB-47" value="The appropriate fields are filled in with the correct data given the audio transcript. All fields can be given in one utterance." style="shape=callout;whiteSpace=wrap;html=1;perimeter=calloutPerimeter;fillColor=#ffe6cc;strokeColor=#d79b00;" vertex="1" parent="1">
          <mxGeometry x="1015" y="240" width="180" height="100" as="geometry" />
        </mxCell>
      </root>
    </mxGraphModel>
  </diagram>
</mxfile>
